<svg width="1592" height="600" viewBox="0 0 1592 600" fill="none" xmlns="http://www.w3.org/2000/svg">
<path d="M674.787 147.331C685.999 147.331 694.267 150.743 699.591 157.568C704.915 164.329 707.577 174.785 707.577 188.934V256.081H672.72V194.851C672.72 189.591 672.251 185.522 671.311 182.642C670.371 179.699 668.931 177.633 666.989 176.444C665.11 175.254 662.605 174.66 659.473 174.66C656.842 174.66 653.836 175.223 650.453 176.35C647.134 177.414 644.252 179.167 641.809 181.609V256.081H606.953V100H641.809V140.194L640.212 160.197C644.409 156.691 649.576 153.686 655.715 151.182C661.853 148.615 668.21 147.331 674.787 147.331Z" fill="#052842"/>
<path d="M780.861 147.144C792.261 147.144 801.312 148.49 808.014 151.182C814.778 153.811 819.664 158.069 822.671 163.954C825.74 169.776 827.274 177.665 827.274 187.619V257.583H805.477C802.658 257.583 800.529 257.396 799.088 257.02C797.648 256.644 796.52 255.768 795.706 254.39C794.892 253.013 794.484 250.822 794.484 247.817V247.065C786.467 254.077 776.508 257.583 764.607 257.583C757.655 257.583 751.516 256.143 746.192 253.263C740.931 250.321 736.859 246.251 733.978 241.055C731.097 235.859 729.656 229.973 729.656 223.4C729.656 217.201 731.347 211.786 734.73 207.153C738.175 202.457 742.904 198.826 748.917 196.259C754.805 193.755 761.475 192.064 768.929 191.188C776.383 190.249 784.306 189.779 792.699 189.779V183.299C792.699 180.106 792.167 177.696 791.102 176.068C790.1 174.44 788.221 173.314 785.465 172.687C782.772 172.061 778.669 171.748 773.157 171.748C769.086 171.748 763.824 172.5 757.373 174.002C750.984 175.442 745.472 177.226 740.837 179.355L733.79 158.882C736.609 157.192 740.555 155.439 745.628 153.623C750.702 151.808 756.339 150.274 762.54 149.022C768.804 147.77 774.911 147.144 780.861 147.144ZM779.17 236.172C781.801 236.172 784.431 235.702 787.062 234.763C789.755 233.824 791.635 232.791 792.699 231.664V206.496C789.317 206.558 785.809 206.902 782.177 207.529C778.544 208.155 775.788 208.906 773.909 209.782C771.403 210.784 769.367 212.162 767.802 213.915C766.298 215.605 765.547 218.172 765.547 221.615C765.547 226.373 766.862 230.005 769.493 232.509C772.123 234.951 775.349 236.172 779.17 236.172Z" fill="#052842"/>
<path d="M902.813 147.519C909.641 147.519 915.81 148.083 921.322 149.21C926.897 150.274 930.592 151.495 932.409 152.872L928.463 178.979C923.264 176.037 916.28 174.566 907.511 174.566C903.377 174.566 899.494 175.473 895.861 177.289C892.29 179.042 889.347 181.985 887.029 186.117C884.774 190.249 883.647 195.633 883.647 202.27C883.647 212.287 885.839 219.581 890.223 224.151C894.671 228.659 900.527 230.913 907.793 230.913C912.177 230.913 916.311 230.568 920.195 229.879C924.141 229.128 927.304 228.189 929.684 227.062L933.912 246.69C930.905 249.82 926.239 252.418 919.913 254.484C913.649 256.55 907.104 257.583 900.276 257.583C888.814 257.583 879.2 255.298 871.433 250.728C863.666 246.095 857.872 239.74 854.051 231.664C850.293 223.525 848.414 214.165 848.414 203.584C848.414 192.816 850.387 183.237 854.333 174.847C858.279 166.395 864.323 159.728 872.466 154.844C880.609 149.961 890.725 147.519 902.813 147.519Z" fill="#052842"/>
<path d="M998.552 214.76L988.405 225.747L988.687 238.332V256.081H953.83V100.094H988.687V159.164L987.56 188.465L1019.5 149.022H1059.06L1021.01 190.343L1061.6 256.081H1022.98L998.552 214.76Z" fill="#052842"/>
<path d="M654.399 389.936C661.227 389.936 667.396 390.499 672.908 391.626C678.483 392.691 682.178 393.911 683.995 395.289L680.049 421.396C674.85 418.454 667.866 416.982 659.097 416.982C654.963 416.982 651.08 417.89 647.447 419.706C643.876 421.459 640.933 424.401 638.615 428.533C636.36 432.666 635.233 438.05 635.233 444.686C635.233 454.703 637.425 461.997 641.809 466.568C646.257 471.075 652.113 473.329 659.379 473.329C663.763 473.329 667.897 472.985 671.781 472.296C675.727 471.545 678.89 470.606 681.27 469.479L685.498 489.106C682.491 492.237 677.825 494.835 671.499 496.901C665.235 498.967 658.69 500 651.863 500C640.4 500 630.786 497.715 623.019 493.144C615.252 488.512 609.458 482.157 605.637 474.08C601.879 465.941 600 456.582 600 446.001C600 435.232 601.973 425.653 605.919 417.264C609.865 408.812 615.91 402.144 624.052 397.261C632.195 392.378 642.311 389.936 654.399 389.936Z" fill="#052842"/>
<path d="M740.367 391.438V498.497H705.416V391.438H740.367ZM702.034 360.448C702.034 357.004 702.973 353.811 704.852 350.869C706.794 347.864 709.362 345.484 712.557 343.731C715.814 341.978 719.29 341.102 722.986 341.102C726.744 341.102 730.063 341.853 732.945 343.356C735.889 344.858 738.143 346.987 739.709 349.742C741.338 352.434 742.152 355.533 742.152 359.039C742.152 362.482 741.213 365.707 739.334 368.712C737.454 371.654 734.918 374.034 731.723 375.849C728.529 377.602 725.084 378.479 721.388 378.479C717.693 378.479 714.373 377.727 711.429 376.225C708.485 374.66 706.168 372.5 704.477 369.745C702.848 366.99 702.034 363.891 702.034 360.448Z" fill="#052842"/>
<path d="M802.377 391.438L803.222 402.896C807.481 399.327 812.837 396.259 819.288 393.692C825.74 391.125 832.035 389.811 838.173 389.748C845.627 389.56 851.734 390.812 856.494 393.504C861.317 396.134 864.919 400.517 867.299 406.652C869.679 412.788 870.869 420.927 870.869 431.069V498.497H836.106V437.267C836.106 432.008 835.668 427.907 834.791 424.965C833.914 422.022 832.504 419.956 830.563 418.767C828.621 417.514 825.928 416.951 822.483 417.076C819.789 417.076 816.814 417.702 813.557 418.954C810.363 420.207 807.638 421.897 805.383 424.026V498.497H770.62V391.438H802.377Z" fill="#052842"/>
<path d="M947.347 389.936C954.175 389.936 960.344 390.499 965.856 391.626C971.431 392.691 975.126 393.911 976.943 395.289L972.997 421.396C967.798 418.454 960.814 416.982 952.045 416.982C947.911 416.982 944.028 417.89 940.395 419.706C936.825 421.459 933.881 424.401 931.563 428.533C929.308 432.666 928.181 438.05 928.181 444.686C928.181 454.703 930.373 461.997 934.758 466.568C939.205 471.075 945.061 473.329 952.327 473.329C956.711 473.329 960.845 472.985 964.729 472.296C968.675 471.545 971.838 470.606 974.218 469.479L978.446 489.106C975.44 492.237 970.773 494.835 964.447 496.901C958.183 498.967 951.638 500 944.811 500C933.348 500 923.734 497.715 915.967 493.144C908.2 488.512 902.406 482.157 898.585 474.08C894.827 465.941 892.948 456.582 892.948 446.001C892.948 435.232 894.921 425.653 898.867 417.264C902.813 408.812 908.858 402.144 917 397.261C925.143 392.378 935.259 389.936 947.347 389.936Z" fill="#052842"/>
<path d="M1033.32 391.438V498.497H998.364V391.438H1033.32ZM994.982 360.448C994.982 357.004 995.922 353.811 997.801 350.869C999.742 347.864 1002.31 345.484 1005.5 343.731C1008.76 341.978 1012.24 341.102 1015.93 341.102C1019.69 341.102 1023.01 341.853 1025.89 343.356C1028.84 344.858 1031.09 346.987 1032.66 349.742C1034.29 352.434 1035.1 355.533 1035.1 359.039C1035.1 362.482 1034.16 365.707 1032.28 368.712C1030.4 371.654 1027.87 374.034 1024.67 375.849C1021.48 377.602 1018.03 378.479 1014.34 378.479C1010.64 378.479 1007.32 377.727 1004.38 376.225C1001.43 374.66 999.116 372.5 997.425 369.745C995.796 366.99 994.982 363.891 994.982 360.448Z" fill="#052842"/>
<path d="M1095.32 391.438L1096.17 402.896C1100.43 399.327 1105.78 396.259 1112.24 393.692C1118.69 391.125 1124.98 389.811 1131.12 389.748C1138.57 389.56 1144.68 390.812 1149.44 393.504C1154.27 396.134 1157.87 400.517 1160.25 406.652C1162.63 412.788 1163.82 420.927 1163.82 431.069V498.497H1129.05V437.267C1129.05 432.008 1128.62 427.907 1127.74 424.965C1126.86 422.022 1125.45 419.956 1123.51 418.767C1121.57 417.514 1118.88 416.951 1115.43 417.076C1112.74 417.076 1109.76 417.702 1106.51 418.954C1103.31 420.207 1100.59 421.897 1098.33 424.026V498.497H1063.57V391.438H1095.32Z" fill="#052842"/>
<path d="M1224.98 391.438L1225.83 402.896C1230.09 399.327 1235.44 396.259 1241.89 393.692C1248.34 391.125 1254.64 389.811 1260.78 389.748C1268.23 389.56 1274.34 390.812 1279.1 393.504C1283.92 396.134 1287.52 400.517 1289.9 406.652C1292.28 412.788 1293.47 420.927 1293.47 431.069V498.497H1258.71V437.267C1258.71 432.008 1258.27 427.907 1257.4 424.965C1256.52 422.022 1255.11 419.956 1253.17 418.767C1251.23 417.514 1248.53 416.951 1245.09 417.076C1242.39 417.076 1239.42 417.702 1236.16 418.954C1232.97 420.207 1230.24 421.897 1227.99 424.026V498.497H1193.22V391.438H1224.98Z" fill="#052842"/>
<path d="M1366.76 389.56C1378.16 389.56 1387.21 390.906 1393.91 393.598C1400.67 396.228 1405.56 400.485 1408.57 406.37C1411.64 412.193 1413.17 420.081 1413.17 430.036V500H1391.37C1388.55 500 1386.43 499.812 1384.98 499.437C1383.54 499.061 1382.42 498.184 1381.6 496.807C1380.79 495.43 1380.38 493.238 1380.38 490.233V489.482C1372.36 496.494 1362.4 500 1350.5 500C1343.55 500 1337.41 498.56 1332.09 495.68C1326.83 492.738 1322.76 488.668 1319.87 483.472C1316.99 478.275 1315.55 472.39 1315.55 465.816C1315.55 459.618 1317.24 454.203 1320.63 449.57C1324.07 444.874 1328.8 441.243 1334.81 438.676C1340.7 436.172 1347.37 434.481 1354.83 433.605C1362.28 432.666 1370.2 432.196 1378.6 432.196V425.716C1378.6 422.523 1378.06 420.113 1377 418.485C1376 416.857 1374.12 415.73 1371.36 415.104C1368.67 414.478 1364.57 414.165 1359.05 414.165C1354.98 414.165 1349.72 414.916 1343.27 416.419C1336.88 417.859 1331.37 419.643 1326.73 421.772L1319.69 401.299C1322.51 399.609 1326.45 397.856 1331.52 396.04C1336.6 394.224 1342.24 392.691 1348.44 391.438C1354.7 390.186 1360.81 389.56 1366.76 389.56ZM1365.07 478.588C1367.7 478.588 1370.33 478.119 1372.96 477.18C1375.65 476.24 1377.53 475.207 1378.6 474.08V448.912C1375.21 448.975 1371.71 449.319 1368.07 449.945C1364.44 450.571 1361.68 451.323 1359.8 452.199C1357.3 453.201 1355.26 454.578 1353.7 456.331C1352.19 458.022 1351.44 460.589 1351.44 464.032C1351.44 468.79 1352.76 472.421 1355.39 474.926C1358.02 477.367 1361.25 478.588 1365.07 478.588Z" fill="#052842"/>
<path d="M1444.08 414.259H1431.68V395.852C1437.19 394.224 1441.33 392.722 1444.08 391.345C1446.84 389.905 1448.87 387.807 1450.19 385.052C1451 383.425 1452.6 379.606 1454.98 373.595L1457.7 367.021H1478.84V391.438H1506.65V414.259H1478.84V452.387C1478.84 459.023 1479.19 463.844 1479.88 466.849C1480.63 469.854 1481.82 471.795 1483.45 472.672C1485.14 473.548 1487.74 473.987 1491.25 473.987C1493.69 473.987 1496.51 473.58 1499.7 472.766C1502.9 471.889 1505.31 470.887 1506.94 469.761L1511.07 489.106C1509.25 490.797 1506.5 492.487 1502.8 494.178C1499.11 495.868 1494.85 497.277 1490.02 498.404C1485.2 499.468 1480.32 500 1475.37 500C1467.79 500 1461.68 498.748 1457.05 496.244C1452.47 493.677 1449.15 489.858 1447.09 484.786C1445.08 479.653 1444.08 473.11 1444.08 465.159V414.259Z" fill="#052842"/>
<path d="M1563.21 391.438V498.497H1528.26V391.438H1563.21ZM1524.88 360.448C1524.88 357.004 1525.82 353.811 1527.7 350.869C1529.64 347.864 1532.21 345.484 1535.4 343.731C1538.66 341.978 1542.14 341.102 1545.83 341.102C1549.59 341.102 1552.91 341.853 1555.79 343.356C1558.74 344.858 1560.99 346.987 1562.56 349.742C1564.19 352.434 1565 355.533 1565 359.039C1565 362.482 1564.06 365.707 1562.18 368.712C1560.3 371.654 1557.77 374.034 1554.57 375.849C1551.38 377.602 1547.93 378.479 1544.24 378.479C1540.54 378.479 1537.22 377.727 1534.28 376.225C1531.33 374.66 1529.02 372.5 1527.32 369.745C1525.7 366.99 1524.88 363.891 1524.88 360.448Z" fill="#052842"/>
<path d="M290 10L532.487 150V430L290 570L47.5129 430V150L290 10Z" fill="#E5FCF5"/>
<path d="M49.5129 151.155L290 12.3094L530.487 151.155V428.845L290 567.691L49.5129 428.845V151.155Z" stroke="black" stroke-opacity="0.3" stroke-width="4"/>
<path d="M290 52.7368L495.476 171.368V408.632L290 527.263L84.524 408.632V171.368L290 52.7368Z" fill="#8FEBDB"/>
<path d="M288.965 164.737L217.135 418.649H179.474L251.303 164.737H288.965Z" fill="black"/>
<path d="M400.526 164.737L328.697 418.649H291.035L362.865 164.737H400.526Z" fill="black"/>
</svg>
